<?xml version="1.0" encoding="UTF-8"?>
<svg xmlns="http://www.w3.org/2000/svg" xmlns:xlink="http://www.w3.org/1999/xlink" width="199pt" height="141pt" viewBox="0 0 199 141" version="1.1">
<g id="surface1">
<path style=" stroke:none;fill-rule:nonzero;fill:rgb(0%,0%,0%);fill-opacity:1;" d="M 63.667969 37.515625 C 63.546875 37.566406 63.367188 37.722656 63.277344 37.867188 C 63.078125 38.171875 63.078125 38.109375 62.550781 47.078125 C 62.457031 48.53125 62.34375 50.453125 62.292969 51.335938 C 62.238281 52.21875 62.125 54.144531 62.03125 55.597656 C 61.949219 57.050781 61.824219 59.039062 61.773438 60.015625 C 61.710938 60.980469 61.617188 62.507812 61.566406 63.390625 C 61.515625 64.273438 61.390625 66.21875 61.304688 67.703125 C 61.214844 69.191406 61.097656 71.132812 61.046875 72.015625 C 60.996094 72.902344 60.828125 75.613281 60.683594 78.042969 C 60.539062 80.476562 60.351562 83.53125 60.269531 84.851562 C 60.1875 86.160156 60.113281 87.398438 60.113281 87.574219 C 60.113281 87.761719 60.074219 87.917969 60.019531 87.917969 C 59.96875 87.917969 59.90625 87.511719 59.867188 87.003906 C 59.835938 86.503906 59.660156 84.082031 59.492188 81.628906 C 58.664062 69.761719 58.714844 70.40625 58.550781 70.300781 C 58.496094 70.261719 58.457031 70.1875 58.457031 70.125 C 58.457031 70.0625 58.527344 70.074219 58.644531 70.15625 C 58.734375 70.230469 58.703125 70.167969 58.570312 70.011719 C 58.425781 69.855469 58.269531 69.730469 58.207031 69.730469 C 58.15625 69.730469 58.195312 69.804688 58.3125 69.898438 C 58.507812 70.054688 58.507812 70.0625 58.300781 69.992188 C 57.148438 69.597656 56.640625 69.585938 56.320312 69.949219 C 56.226562 70.054688 56.113281 70.117188 56.0625 70.09375 C 56.019531 70.0625 55.949219 70.09375 55.90625 70.15625 C 55.855469 70.238281 55.875 70.25 55.96875 70.199219 C 56.050781 70.148438 56.082031 70.167969 56.050781 70.261719 C 56.019531 70.34375 55.949219 70.40625 55.886719 70.40625 C 55.835938 70.40625 55.742188 70.449219 55.6875 70.5 C 55.636719 70.550781 55.65625 70.5625 55.742188 70.519531 C 55.804688 70.480469 55.863281 70.480469 55.863281 70.511719 C 55.863281 70.605469 53.742188 74.042969 53.410156 74.480469 C 53.117188 74.875 52.878906 74.90625 52.539062 74.605469 C 52.402344 74.492188 52.363281 74.429688 52.445312 74.46875 C 52.527344 74.511719 52.484375 74.417969 52.351562 74.273438 C 52.207031 74.117188 52.070312 73.992188 52.050781 73.992188 C 52.019531 73.992188 52.082031 74.085938 52.1875 74.199219 C 52.289062 74.3125 52.332031 74.40625 52.269531 74.40625 C 52.214844 74.40625 52.039062 74.261719 51.863281 74.074219 C 51.699219 73.886719 51.65625 73.804688 51.769531 73.886719 C 52.269531 74.25 51.65625 73.648438 50.601562 72.722656 C 49.988281 72.195312 49.585938 71.871094 49.6875 71.996094 C 49.957031 72.308594 49.738281 72.289062 49.4375 71.964844 C 49.304688 71.820312 49.230469 71.707031 49.273438 71.707031 C 49.324219 71.707031 49.304688 71.632812 49.230469 71.550781 C 49.035156 71.3125 48.214844 70.6875 48.390625 70.90625 C 48.558594 71.125 48.527344 71.125 48.132812 70.9375 C 47.957031 70.84375 47.613281 70.789062 47.3125 70.8125 C 46.867188 70.832031 46.566406 70.96875 45.242188 71.757812 C 44.390625 72.265625 43.40625 72.828125 43.066406 73.003906 L 42.453125 73.316406 L 32.171875 73.367188 L 21.890625 73.421875 L 21.640625 73.648438 C 21.507812 73.773438 21.363281 73.867188 21.300781 73.855469 C 21.246094 73.847656 21.183594 73.929688 21.175781 74.042969 L 21.144531 74.25 L 21.238281 74.042969 C 21.300781 73.898438 21.332031 74.085938 21.320312 74.636719 C 21.320312 75.25 21.363281 75.5 21.515625 75.726562 C 21.621094 75.882812 21.714844 76.058594 21.714844 76.121094 C 21.714844 76.175781 21.808594 76.238281 21.921875 76.246094 C 22.097656 76.269531 22.097656 76.269531 21.953125 76.195312 C 21.847656 76.152344 26.542969 76.101562 32.367188 76.082031 C 40.289062 76.058594 43.066406 76.019531 43.375 75.925781 C 43.605469 75.851562 44.472656 75.394531 45.292969 74.90625 C 46.121094 74.417969 46.898438 73.980469 47.023438 73.949219 C 47.273438 73.867188 47.761719 74.085938 48 74.367188 C 48.101562 74.511719 48.0625 74.5 47.8125 74.324219 C 47.636719 74.199219 47.367188 74.09375 47.210938 74.09375 C 46.953125 74.09375 46.328125 74.355469 46.328125 74.46875 C 46.328125 74.492188 46.464844 74.449219 46.640625 74.355469 C 47.136719 74.09375 47.492188 74.15625 48 74.585938 C 48.246094 74.800781 48.359375 74.863281 48.257812 74.738281 C 47.914062 74.34375 48.238281 74.492188 48.621094 74.894531 C 48.808594 75.113281 48.859375 75.195312 48.722656 75.082031 C 48.164062 74.625 48.652344 75.15625 49.355469 75.769531 C 49.769531 76.132812 50.019531 76.328125 49.914062 76.195312 C 49.585938 75.808594 49.894531 75.945312 50.277344 76.351562 C 50.515625 76.621094 50.546875 76.683594 50.371094 76.546875 C 50.007812 76.277344 51.242188 77.453125 51.875 77.972656 C 52.164062 78.210938 52.332031 78.324219 52.246094 78.222656 C 52.175781 78.128906 52.15625 78.042969 52.214844 78.042969 C 52.351562 78.042969 52.558594 78.304688 52.484375 78.386719 C 52.457031 78.417969 52.527344 78.5 52.652344 78.5625 C 52.890625 78.699219 53.824219 78.617188 54.101562 78.441406 C 54.226562 78.367188 54.21875 78.355469 54.050781 78.398438 C 53.523438 78.53125 52.859375 78.574219 52.714844 78.492188 C 52.609375 78.441406 52.765625 78.398438 53.160156 78.386719 C 54.0625 78.367188 54.28125 78.222656 54.984375 77.160156 C 55.324219 76.640625 55.636719 76.214844 55.667969 76.226562 C 55.699219 76.226562 55.804688 76.164062 55.894531 76.089844 C 55.980469 76.019531 56.074219 75.996094 56.101562 76.039062 C 56.132812 76.082031 56.1875 76.765625 56.226562 77.554688 C 56.269531 78.347656 56.332031 78.96875 56.351562 78.9375 C 56.433594 78.855469 56.269531 76.113281 56.175781 75.957031 C 56.101562 75.851562 56.0625 75.851562 55.925781 75.957031 C 55.835938 76.039062 55.761719 76.050781 55.761719 75.988281 C 55.761719 75.933594 55.835938 75.820312 55.925781 75.746094 C 56.074219 75.632812 56.113281 75.644531 56.238281 75.808594 C 56.320312 75.914062 56.382812 76.132812 56.382812 76.277344 C 56.382812 76.433594 56.527344 78.542969 56.695312 80.964844 C 56.871094 83.386719 57.128906 87.035156 57.265625 89.058594 C 57.410156 91.085938 57.597656 93.726562 57.679688 94.933594 C 57.761719 96.125 57.925781 98.445312 58.042969 100.074219 C 58.15625 101.707031 58.34375 104.386719 58.464844 106.050781 C 58.695312 109.066406 58.789062 112.773438 58.644531 112.679688 C 58.589844 112.660156 58.558594 111.902344 58.558594 111.007812 C 58.558594 109.398438 58.226562 103.898438 58.167969 104.472656 C 58.144531 104.636719 58.207031 105.761719 58.289062 106.964844 C 58.382812 108.183594 58.457031 109.949219 58.457031 110.894531 C 58.457031 112.308594 58.488281 112.648438 58.613281 112.753906 C 58.695312 112.828125 58.765625 112.847656 58.765625 112.804688 C 58.765625 112.765625 58.839844 112.785156 58.921875 112.859375 C 59.003906 112.929688 59.046875 113.023438 59.015625 113.078125 C 58.921875 113.230469 59.472656 113.378906 60.125 113.378906 C 60.726562 113.378906 61.367188 113.191406 61.503906 112.984375 C 61.535156 112.929688 61.390625 112.972656 61.183594 113.078125 C 60.789062 113.273438 59.648438 113.347656 59.265625 113.191406 C 59.160156 113.148438 59.523438 113.117188 60.0625 113.117188 C 60.945312 113.117188 61.058594 113.097656 61.296875 112.867188 C 61.441406 112.722656 61.566406 112.648438 61.566406 112.703125 C 61.566406 112.753906 61.617188 112.742188 61.667969 112.691406 C 61.730469 112.628906 61.785156 111.457031 61.804688 109.625 C 61.824219 107.691406 61.804688 107.027344 61.753906 107.714844 C 61.710938 108.285156 61.679688 109.542969 61.691406 110.519531 C 61.699219 112.710938 61.648438 113.097656 61.566406 111.457031 C 61.515625 110.332031 61.617188 108.078125 61.980469 102.101562 C 62.03125 101.125 62.15625 99.140625 62.238281 97.6875 C 62.332031 96.230469 62.445312 94.308594 62.5 93.425781 C 62.550781 92.542969 62.664062 90.617188 62.757812 89.164062 C 62.839844 87.710938 62.964844 85.714844 63.015625 84.746094 C 63.078125 83.769531 63.171875 82.253906 63.222656 81.371094 C 63.277344 80.488281 63.441406 77.773438 63.585938 75.34375 C 63.855469 70.90625 64.269531 64.035156 64.46875 60.742188 C 64.53125 59.765625 64.644531 57.9375 64.714844 56.65625 C 64.839844 54.484375 64.902344 54.019531 65.039062 54.359375 C 65.058594 54.445312 65.804688 60.273438 66.6875 67.320312 C 67.980469 77.703125 68.3125 80.183594 68.46875 80.414062 C 68.570312 80.570312 68.664062 80.734375 68.664062 80.796875 C 68.664062 80.851562 68.757812 80.914062 68.871094 80.921875 C 69.078125 80.953125 69.078125 80.953125 68.871094 80.859375 C 68.738281 80.808594 68.914062 80.777344 69.433594 80.765625 C 69.855469 80.757812 70.304688 80.726562 70.417969 80.683594 C 70.582031 80.632812 70.605469 80.644531 70.511719 80.746094 C 70.449219 80.820312 70.199219 80.871094 69.960938 80.871094 C 69.722656 80.859375 69.433594 80.902344 69.308594 80.953125 C 69.164062 81.007812 69.328125 81.015625 69.742188 80.996094 C 70.417969 80.945312 70.695312 80.828125 70.65625 80.613281 C 70.644531 80.550781 70.695312 80.496094 70.78125 80.488281 C 70.851562 80.488281 70.988281 80.371094 71.082031 80.226562 L 71.226562 79.96875 L 71.007812 80.226562 C 70.894531 80.371094 70.789062 80.433594 70.789062 80.382812 C 70.789062 80.320312 70.832031 80.226562 70.882812 80.175781 C 70.933594 80.113281 71.753906 78.6875 72.707031 77.003906 C 73.652344 75.320312 74.519531 73.847656 74.625 73.742188 C 74.8125 73.554688 74.832031 73.554688 75.082031 73.722656 C 75.226562 73.816406 75.351562 73.949219 75.351562 74.023438 C 75.339844 74.09375 75.289062 74.074219 75.207031 73.960938 C 74.976562 73.660156 74.6875 73.742188 74.429688 74.199219 C 74.148438 74.707031 74.210938 74.761719 74.511719 74.25 C 74.730469 73.867188 74.914062 73.804688 75.121094 74.011719 C 75.195312 74.085938 75.308594 74.148438 75.371094 74.148438 C 75.433594 74.148438 75.507812 74.210938 75.535156 74.292969 C 75.566406 74.386719 75.535156 74.40625 75.445312 74.355469 C 75.359375 74.304688 75.328125 74.3125 75.382812 74.367188 C 75.433594 74.417969 75.527344 74.460938 75.578125 74.460938 C 75.640625 74.460938 75.714844 74.523438 75.746094 74.605469 C 75.777344 74.699219 75.746094 74.71875 75.652344 74.667969 C 75.566406 74.617188 75.535156 74.625 75.589844 74.675781 C 75.640625 74.730469 75.734375 74.769531 75.785156 74.769531 C 75.847656 74.769531 75.921875 74.832031 75.953125 74.917969 C 75.984375 75.011719 75.953125 75.03125 75.859375 74.980469 C 75.777344 74.925781 75.746094 74.9375 75.796875 74.988281 C 75.847656 75.042969 75.941406 75.082031 75.992188 75.082031 C 76.054688 75.082031 76.128906 75.144531 76.160156 75.226562 C 76.191406 75.320312 76.160156 75.34375 76.066406 75.289062 C 75.984375 75.238281 75.953125 75.25 76.003906 75.300781 C 76.054688 75.351562 76.148438 75.394531 76.199219 75.394531 C 76.261719 75.394531 76.335938 75.457031 76.367188 75.539062 C 76.398438 75.632812 76.367188 75.65625 76.285156 75.601562 C 76.191406 75.539062 76.167969 75.5625 76.222656 75.644531 C 76.273438 75.71875 76.335938 75.746094 76.367188 75.71875 C 76.4375 75.644531 76.699219 75.851562 76.699219 75.988281 C 76.699219 76.050781 76.613281 76.027344 76.523438 75.957031 C 76.355469 75.820312 76.34375 75.832031 76.480469 75.996094 C 76.5625 76.089844 76.644531 76.152344 76.675781 76.132812 C 76.761719 76.039062 77.320312 76.382812 77.289062 76.496094 C 77.277344 76.570312 77.339844 76.640625 77.421875 76.664062 C 77.527344 76.695312 77.539062 76.683594 77.453125 76.621094 C 77.390625 76.578125 82.988281 76.539062 89.890625 76.539062 C 96.804688 76.539062 102.597656 76.496094 102.765625 76.453125 C 103.011719 76.382812 103.042969 76.390625 102.921875 76.484375 C 102.785156 76.589844 102.785156 76.601562 102.921875 76.558594 C 103.003906 76.539062 103.074219 76.476562 103.074219 76.421875 C 103.074219 76.269531 103.230469 76.070312 103.355469 76.070312 C 103.417969 76.070312 103.40625 76.144531 103.324219 76.246094 C 103.242188 76.351562 103.386719 76.269531 103.625 76.070312 C 103.875 75.871094 104.082031 75.65625 104.082031 75.601562 C 104.070312 75.46875 104.382812 75.136719 104.507812 75.136719 C 104.566406 75.136719 104.527344 75.238281 104.414062 75.363281 C 104.308594 75.488281 104.464844 75.382812 104.753906 75.144531 C 105.054688 74.894531 105.273438 74.65625 105.242188 74.605469 C 105.222656 74.5625 105.292969 74.46875 105.417969 74.40625 C 105.65625 74.273438 106.132812 74.34375 106.132812 74.523438 C 106.132812 74.585938 106.070312 74.59375 106.007812 74.554688 C 105.925781 74.511719 105.90625 74.523438 105.957031 74.574219 C 106.007812 74.625 106.101562 74.667969 106.164062 74.667969 C 106.214844 74.667969 106.289062 74.730469 106.320312 74.8125 C 106.351562 74.90625 106.320312 74.925781 106.238281 74.875 C 106.144531 74.824219 106.121094 74.832031 106.175781 74.917969 C 106.214844 74.980469 106.289062 75.011719 106.339844 74.980469 C 106.382812 74.949219 106.570312 75.15625 106.746094 75.425781 C 107.085938 75.957031 107.140625 76.132812 106.941406 76.007812 C 106.871094 75.964844 106.859375 75.976562 106.898438 76.058594 C 106.941406 76.121094 107.015625 76.152344 107.066406 76.121094 C 107.109375 76.089844 107.40625 76.484375 107.730469 76.996094 C 108.320312 77.921875 108.402344 78.117188 108.183594 77.980469 C 108.113281 77.941406 108.101562 77.949219 108.144531 78.035156 C 108.183594 78.097656 108.257812 78.128906 108.308594 78.097656 C 108.382812 78.042969 109.554688 79.789062 109.554688 79.957031 C 109.554688 80 109.492188 80 109.429688 79.957031 C 109.347656 79.914062 109.324219 79.925781 109.378906 79.976562 C 109.429688 80.03125 109.523438 80.070312 109.574219 80.070312 C 109.636719 80.070312 109.710938 80.132812 109.738281 80.214844 C 109.769531 80.308594 109.738281 80.332031 109.65625 80.277344 C 109.5625 80.226562 109.542969 80.238281 109.59375 80.320312 C 109.636719 80.382812 109.710938 80.414062 109.75 80.394531 C 109.792969 80.363281 109.957031 80.488281 110.125 80.664062 C 110.414062 80.964844 110.445312 80.976562 111.171875 80.933594 C 111.710938 80.914062 111.980469 80.851562 112.125 80.703125 C 112.25 80.601562 112.789062 79.632812 113.347656 78.554688 C 113.90625 77.484375 114.425781 76.570312 114.496094 76.546875 C 114.734375 76.453125 114.796875 76.839844 115.035156 79.863281 C 115.160156 81.464844 115.304688 83.3125 115.359375 83.96875 C 115.449219 85.164062 115.667969 87.886719 115.875 90.515625 C 115.9375 91.285156 116.03125 92.457031 116.082031 93.113281 C 116.136719 93.769531 116.488281 98.164062 116.859375 102.882812 C 117.511719 111.175781 117.585938 112.046875 117.710938 112.496094 C 117.753906 112.640625 117.730469 112.671875 117.660156 112.597656 C 117.597656 112.535156 117.535156 112.378906 117.503906 112.234375 L 117.460938 111.976562 L 117.441406 112.246094 C 117.429688 112.496094 117.574219 112.722656 117.773438 112.742188 C 117.8125 112.753906 117.84375 112.785156 117.855469 112.828125 C 117.875 112.992188 118.082031 113.171875 118.25 113.160156 C 118.363281 113.160156 118.34375 113.128906 118.1875 113.066406 C 118.050781 113.015625 117.949219 112.953125 117.949219 112.941406 C 117.949219 112.921875 118.382812 112.910156 118.921875 112.910156 C 119.484375 112.910156 119.84375 112.941406 119.785156 112.992188 C 119.699219 113.054688 119.710938 113.066406 119.816406 113.035156 C 119.898438 113.015625 119.96875 112.941406 119.96875 112.890625 C 119.96875 112.742188 120.113281 112.597656 120.25 112.597656 C 120.3125 112.597656 120.382812 112.527344 120.40625 112.441406 C 120.445312 112.308594 120.4375 112.308594 120.332031 112.441406 C 120.238281 112.566406 120.230469 112.527344 120.269531 112.234375 C 120.300781 112.039062 120.40625 110.65625 120.488281 109.167969 C 120.570312 107.683594 120.683594 105.667969 120.746094 104.699219 C 120.800781 103.722656 120.921875 101.664062 121.007812 100.128906 C 121.089844 98.578125 121.203125 96.554688 121.265625 95.605469 C 121.316406 94.660156 121.429688 92.625 121.523438 91.085938 C 121.609375 89.539062 121.730469 87.480469 121.785156 86.515625 C 121.835938 85.539062 122 82.691406 122.148438 80.175781 C 122.292969 77.660156 122.457031 74.800781 122.507812 73.835938 C 122.5625 72.859375 122.726562 69.992188 122.871094 67.445312 C 123.015625 64.898438 123.183594 62.09375 123.234375 61.210938 C 123.285156 60.324219 123.378906 58.570312 123.441406 57.3125 C 123.628906 53.625 123.703125 53.65625 124.21875 57.625 C 124.425781 59.222656 124.75 61.75 124.945312 63.234375 C 125.140625 64.722656 125.535156 67.789062 125.824219 70.042969 C 126.851562 78.003906 127.070312 79.601562 127.183594 79.851562 C 127.308594 80.125 127.589844 80.269531 128.210938 80.394531 C 128.832031 80.519531 129.164062 80.464844 129.441406 80.183594 C 129.578125 80.039062 130.429688 78.480469 131.308594 76.726562 C 132.675781 74.023438 132.96875 73.515625 133.164062 73.492188 C 133.414062 73.453125 133.808594 73.722656 133.808594 73.917969 C 133.808594 73.980469 133.691406 73.917969 133.558594 73.792969 C 133.414062 73.660156 133.226562 73.574219 133.113281 73.605469 C 132.945312 73.648438 132.957031 73.660156 133.144531 73.667969 C 133.257812 73.667969 133.445312 73.773438 133.546875 73.886719 C 133.652344 74.003906 133.753906 74.074219 133.785156 74.042969 C 133.859375 73.972656 134.222656 74.304688 134.222656 74.4375 C 134.222656 74.492188 134.136719 74.46875 134.046875 74.398438 C 133.941406 74.3125 134.015625 74.449219 134.210938 74.699219 C 134.398438 74.949219 134.585938 75.125 134.613281 75.09375 C 134.6875 75.019531 134.945312 75.238281 134.945312 75.363281 C 134.945312 75.425781 134.863281 75.40625 134.769531 75.332031 C 134.613281 75.21875 134.625 75.238281 134.78125 75.425781 C 134.894531 75.550781 135 75.632812 135.03125 75.601562 C 135.101562 75.53125 135.464844 75.863281 135.464844 75.996094 C 135.464844 76.058594 135.371094 76.019531 135.257812 75.914062 C 135.144531 75.808594 135.050781 75.746094 135.050781 75.777344 C 135.050781 75.800781 135.195312 75.957031 135.382812 76.132812 C 135.558594 76.296875 135.660156 76.371094 135.621094 76.289062 C 135.558594 76.175781 135.578125 76.152344 135.734375 76.214844 C 135.941406 76.296875 142.804688 76.289062 169.585938 76.183594 C 182.457031 76.132812 185.960938 76.089844 186.066406 75.988281 C 186.25 75.800781 186.398438 75.839844 186.242188 76.039062 C 186.167969 76.144531 186.230469 76.113281 186.386719 75.976562 C 186.542969 75.832031 186.667969 75.675781 186.667969 75.613281 C 186.667969 75.5625 186.59375 75.601562 186.5 75.71875 C 186.34375 75.914062 186.335938 75.914062 186.40625 75.707031 C 186.5625 75.28125 186.582031 74.417969 186.449219 74.035156 C 186.375 73.804688 186.3125 73.597656 186.304688 73.554688 C 186.304688 73.523438 186.261719 73.453125 186.210938 73.398438 C 186.160156 73.347656 186.148438 73.367188 186.1875 73.453125 C 186.25 73.554688 186.199219 73.566406 185.972656 73.503906 C 185.628906 73.410156 183.472656 73.398438 157.105469 73.472656 L 137.132812 73.523438 L 136.707031 73.109375 C 136.480469 72.890625 136.292969 72.660156 136.292969 72.597656 C 136.292969 72.546875 136.46875 72.691406 136.6875 72.933594 C 136.957031 73.222656 137.175781 73.367188 137.339844 73.359375 C 137.558594 73.347656 137.546875 73.335938 137.269531 73.253906 C 137.082031 73.203125 136.8125 72.992188 136.65625 72.785156 C 136.5 72.589844 136.347656 72.441406 136.316406 72.472656 C 136.242188 72.546875 135.984375 72.339844 135.984375 72.203125 C 135.984375 72.140625 136.066406 72.164062 136.167969 72.234375 C 136.316406 72.351562 136.304688 72.339844 136.148438 72.140625 C 135.929688 71.890625 135.828125 71.839844 135.941406 72.039062 C 135.984375 72.109375 135.921875 72.078125 135.796875 71.976562 C 135.527344 71.738281 135.484375 71.519531 135.753906 71.714844 C 135.902344 71.832031 135.890625 71.820312 135.734375 71.621094 C 135.515625 71.371094 135.414062 71.320312 135.527344 71.519531 C 135.570312 71.589844 135.507812 71.558594 135.382812 71.457031 C 135.113281 71.21875 135.070312 71 135.339844 71.195312 C 135.484375 71.3125 135.476562 71.300781 135.320312 71.101562 C 135.101562 70.851562 135 70.800781 135.113281 71 C 135.152344 71.070312 135.09375 71.039062 134.96875 70.9375 C 134.699219 70.699219 134.65625 70.46875 134.925781 70.675781 C 135.082031 70.8125 135.09375 70.800781 134.957031 70.636719 C 134.875 70.542969 134.792969 70.480469 134.761719 70.511719 C 134.6875 70.582031 134.429688 70.355469 134.429688 70.230469 C 134.429688 70.167969 134.511719 70.1875 134.613281 70.261719 C 134.707031 70.332031 134.675781 70.269531 134.542969 70.117188 C 134.261719 69.804688 134.117188 69.730469 134.335938 70.011719 C 134.40625 70.117188 134.273438 70.011719 134.035156 69.78125 C 133.597656 69.378906 133.578125 69.367188 132.894531 69.398438 C 132.460938 69.417969 132.105469 69.492188 131.941406 69.605469 C 131.796875 69.699219 131.652344 69.78125 131.609375 69.78125 C 131.578125 69.78125 131.503906 69.824219 131.453125 69.875 C 131.402344 69.929688 131.433594 69.9375 131.515625 69.886719 C 131.691406 69.78125 131.765625 69.636719 130.542969 72.046875 C 129.796875 73.515625 129.453125 74.09375 129.328125 74.09375 C 129.089844 74.09375 129.113281 74.1875 128.636719 70.457031 C 125.359375 45.113281 124.488281 38.492188 124.417969 38.292969 C 124.355469 38.148438 124.375 38.128906 124.488281 38.191406 C 124.570312 38.242188 124.601562 38.242188 124.550781 38.179688 C 124.5 38.128906 124.425781 38.085938 124.394531 38.085938 C 124.242188 38.085938 124.0625 37.910156 124.117188 37.816406 C 124.210938 37.683594 123.703125 37.515625 123.253906 37.527344 C 122.925781 37.535156 122.953125 37.558594 123.421875 37.621094 C 124.023438 37.714844 124.3125 37.859375 123.804688 37.816406 C 122.953125 37.753906 122.417969 37.828125 122.148438 38.066406 C 121.816406 38.347656 121.753906 38.824219 121.585938 41.878906 C 121.378906 45.757812 120.953125 53.15625 120.902344 53.933594 C 120.871094 54.359375 120.777344 56.003906 120.695312 57.570312 C 120.601562 59.140625 120.445312 62 120.332031 63.910156 C 120.21875 65.824219 120.0625 68.679688 119.96875 70.25 C 119.886719 71.820312 119.761719 73.878906 119.710938 74.824219 C 119.585938 76.820312 119.390625 80.246094 119.089844 85.734375 C 118.839844 90.191406 118.789062 90.828125 118.683594 90.617188 C 118.632812 90.535156 118.550781 89.714844 118.476562 88.800781 C 118.414062 87.886719 118.3125 86.597656 118.261719 85.941406 C 118.207031 85.289062 118.113281 84.113281 118.050781 83.34375 C 117.992188 82.574219 117.875 81.101562 117.792969 80.070312 C 117.710938 79.042969 117.523438 76.703125 117.378906 74.875 C 117.066406 70.96875 117.035156 70.699219 116.820312 70.355469 C 116.726562 70.21875 116.664062 70.085938 116.683594 70.0625 C 116.707031 70.042969 116.683594 69.992188 116.644531 69.960938 C 116.601562 69.917969 116.601562 69.949219 116.644531 70.023438 C 116.707031 70.117188 116.652344 70.136719 116.476562 70.09375 C 114.964844 69.75 114.820312 69.792969 114.300781 70.699219 C 114.09375 71.050781 113.367188 72.464844 112.671875 73.847656 C 111.980469 75.21875 111.324219 76.433594 111.222656 76.527344 C 111.066406 76.671875 110.972656 76.683594 110.808594 76.589844 C 110.683594 76.527344 110.589844 76.421875 110.589844 76.359375 C 110.589844 76.289062 110.640625 76.296875 110.746094 76.382812 C 110.828125 76.445312 110.972656 76.484375 111.078125 76.453125 C 111.222656 76.414062 111.222656 76.402344 111.035156 76.390625 C 110.910156 76.390625 110.777344 76.328125 110.746094 76.277344 C 110.703125 76.214844 110.640625 76.195312 110.589844 76.226562 C 110.546875 76.257812 110.363281 76.050781 110.1875 75.777344 C 109.84375 75.25 109.792969 75.074219 109.988281 75.195312 C 110.0625 75.238281 110.070312 75.226562 110.03125 75.144531 C 109.988281 75.082031 109.917969 75.050781 109.863281 75.082031 C 109.824219 75.113281 109.636719 74.90625 109.460938 74.636719 C 109.117188 74.105469 109.066406 73.929688 109.261719 74.054688 C 109.335938 74.09375 109.347656 74.085938 109.304688 74.003906 C 109.261719 73.941406 109.191406 73.910156 109.140625 73.941406 C 109.097656 73.972656 108.953125 73.835938 108.839844 73.636719 C 108.589844 73.253906 108.558594 73.109375 108.746094 73.222656 C 108.816406 73.265625 108.828125 73.253906 108.785156 73.171875 C 108.746094 73.109375 108.671875 73.078125 108.621094 73.109375 C 108.578125 73.140625 108.394531 72.933594 108.214844 72.660156 C 107.875 72.121094 107.824219 71.964844 108.03125 72.078125 C 108.101562 72.121094 108.125 72.109375 108.070312 72.058594 C 108.019531 72.007812 107.925781 71.964844 107.875 71.964844 C 107.8125 71.964844 107.738281 71.902344 107.707031 71.820312 C 107.675781 71.726562 107.707031 71.707031 107.800781 71.757812 C 107.886719 71.808594 107.917969 71.800781 107.863281 71.746094 C 107.8125 71.695312 107.71875 71.652344 107.667969 71.652344 C 107.605469 71.652344 107.53125 71.589844 107.5 71.507812 C 107.46875 71.414062 107.5 71.394531 107.585938 71.445312 C 107.675781 71.507812 107.699219 71.488281 107.648438 71.402344 C 107.59375 71.332031 107.53125 71.300781 107.5 71.332031 C 107.46875 71.371094 107.324219 71.28125 107.179688 71.144531 C 106.871094 70.851562 105.914062 70.636719 105.554688 70.769531 C 105.429688 70.820312 104.628906 71.445312 103.78125 72.152344 C 102.929688 72.859375 102.101562 73.523438 101.9375 73.636719 C 101.644531 73.824219 101.261719 73.835938 90.222656 73.835938 C 81.132812 73.835938 78.769531 73.804688 78.59375 73.699219 C 78.367188 73.574219 77.628906 72.578125 77.628906 72.402344 C 77.628906 72.359375 77.691406 72.351562 77.765625 72.390625 C 77.839844 72.433594 77.859375 72.421875 77.808594 72.371094 C 77.753906 72.320312 77.660156 72.277344 77.609375 72.277344 C 77.546875 72.277344 77.476562 72.214844 77.445312 72.132812 C 77.414062 72.039062 77.445312 72.015625 77.539062 72.070312 C 77.621094 72.121094 77.652344 72.109375 77.601562 72.058594 C 77.546875 72.007812 77.453125 71.964844 77.402344 71.964844 C 77.339844 71.964844 77.269531 71.902344 77.238281 71.820312 C 77.207031 71.726562 77.238281 71.707031 77.320312 71.757812 C 77.414062 71.808594 77.433594 71.800781 77.382812 71.714844 C 77.339844 71.652344 77.269531 71.621094 77.226562 71.652344 C 77.132812 71.707031 75.929688 69.949219 76.003906 69.875 C 76.023438 69.84375 76.292969 70.210938 76.59375 70.667969 C 76.894531 71.125 77.152344 71.496094 77.183594 71.496094 C 77.246094 71.496094 77.175781 71.382812 76.5625 70.480469 C 76.285156 70.054688 76.035156 69.742188 75.992188 69.773438 C 75.960938 69.8125 75.835938 69.742188 75.703125 69.617188 C 75.421875 69.347656 75.050781 69.335938 74.261719 69.574219 C 73.921875 69.679688 73.609375 69.773438 73.566406 69.773438 C 73.535156 69.78125 73.464844 69.824219 73.414062 69.875 C 73.359375 69.929688 73.390625 69.9375 73.472656 69.886719 C 73.566406 69.835938 73.597656 69.855469 73.566406 69.949219 C 73.535156 70.03125 73.464844 70.09375 73.402344 70.09375 C 73.351562 70.09375 73.257812 70.136719 73.203125 70.1875 C 73.152344 70.25 73.183594 70.25 73.265625 70.199219 C 73.484375 70.074219 73.445312 70.148438 72.054688 72.589844 C 70.757812 74.886719 70.53125 75.136719 70.355469 74.460938 C 70.3125 74.28125 69.265625 66.082031 68.042969 56.222656 C 66.820312 46.359375 65.785156 38.179688 65.742188 38.035156 C 65.710938 37.890625 65.722656 37.816406 65.773438 37.859375 C 65.816406 37.898438 65.917969 38.253906 65.992188 38.636719 L 66.125 39.335938 L 66.074219 38.722656 C 66.023438 38.117188 65.855469 37.652344 65.742188 37.765625 C 65.699219 37.796875 65.585938 37.742188 65.484375 37.652344 C 65.253906 37.441406 64.042969 37.347656 63.667969 37.515625 Z M 63.667969 37.515625 "/>
<path style=" stroke:none;fill-rule:nonzero;fill:rgb(0%,0%,0%);fill-opacity:1;" d="M 105.136719 70.789062 C 104.972656 70.914062 104.296875 71.476562 103.636719 72.039062 C 102.972656 72.589844 102.257812 73.160156 102.039062 73.304688 L 101.644531 73.574219 L 78.800781 73.574219 L 78.5 73.359375 L 78.199219 73.140625 L 78.492188 73.410156 L 78.78125 73.679688 L 101.644531 73.679688 L 102.039062 73.410156 C 102.257812 73.265625 102.972656 72.683594 103.644531 72.121094 C 104.320312 71.558594 105.035156 70.976562 105.253906 70.832031 C 105.46875 70.6875 105.59375 70.5625 105.542969 70.5625 C 105.480469 70.5625 105.304688 70.667969 105.136719 70.789062 Z M 105.136719 70.789062 "/>
<path style=" stroke:none;fill-rule:nonzero;fill:rgb(0%,0%,0%);fill-opacity:1;" d="M 27.671875 73.160156 L 22.128906 73.210938 L 27.050781 73.222656 C 29.757812 73.234375 34.359375 73.203125 37.261719 73.171875 L 42.546875 73.097656 L 37.882812 73.097656 C 35.324219 73.109375 30.71875 73.128906 27.671875 73.160156 Z M 27.671875 73.160156 "/>
<path style=" stroke:none;fill-rule:nonzero;fill:rgb(0%,0%,0%);fill-opacity:1;" d="M 141.113281 73.367188 C 139.238281 73.398438 144.183594 73.410156 152.101562 73.390625 C 160.027344 73.367188 166.558594 73.335938 166.609375 73.316406 C 166.765625 73.265625 145 73.304688 141.113281 73.367188 Z M 141.113281 73.367188 "/>
<path style=" stroke:none;fill-rule:nonzero;fill:rgb(0%,0%,0%);fill-opacity:1;" d="M 183.558594 76.257812 C 182.332031 76.269531 171.398438 76.328125 159.25 76.371094 L 137.175781 76.464844 L 161.398438 76.421875 C 175.792969 76.390625 185.710938 76.339844 185.859375 76.277344 C 185.992188 76.226562 186.023438 76.195312 185.941406 76.207031 C 185.859375 76.214844 184.78125 76.238281 183.558594 76.257812 Z M 183.558594 76.257812 "/>
<path style=" stroke:none;fill-rule:nonzero;fill:rgb(0%,0%,0%);fill-opacity:1;" d="M 83.828125 76.765625 C 87.269531 76.789062 92.867188 76.789062 96.265625 76.765625 C 99.664062 76.757812 96.855469 76.746094 90.015625 76.746094 C 83.175781 76.746094 80.386719 76.757812 83.828125 76.765625 Z M 83.828125 76.765625 "/>
</g>
</svg>
