<?xml version="1.0" encoding="iso-8859-1"?>
<!-- Generator: Adobe Illustrator 19.0.0, SVG Export Plug-In . SVG Version: 6.00 Build 0)  -->
<svg version="1.1" id="Capa_1" xmlns="http://www.w3.org/2000/svg" xmlns:xlink="http://www.w3.org/1999/xlink" x="0px" y="0px"
	 viewBox="0 0 444.087 444.087" style="enable-background:new 0 0 444.087 444.087;" xml:space="preserve">
<g>
	<g id="Guides_For_Artboard_36_">
	</g>
	<g id="Artwork_35_">
		<path style="fill:none;stroke:#2B3237;stroke-width:41;stroke-linecap:round;stroke-linejoin:round;stroke-miterlimit:10;" d="
			M196.098,108.807"/>
		<path style="fill:none;stroke:#2B3237;stroke-width:41;stroke-linecap:round;stroke-linejoin:round;stroke-miterlimit:10;" d="
			M196.098,108.807"/>
	</g>
	<g id="Layer_2_35_">
		<g>
			<path style="fill:#2B3237;" d="M211.367,354.112c-3.189,28.817-7.158,64.681,10.023,86.545c1.771,2.253,4.402,3.43,7.062,3.43
				c1.94,0,3.895-0.626,5.539-1.918c3.896-3.062,4.573-8.703,1.511-12.601c-12.646-16.094-8.977-49.263-6.296-73.482
				c0.658-5.944,1.258-11.428,1.617-16.37h-17.997C212.474,344.091,211.93,349.025,211.367,354.112z"/>
			<path style="fill:#5A9794;" d="M182.04,314.076c0,14.16,11.479,25.639,25.639,25.639h5.147h17.997h7.517
				c14.16,0,25.639-11.479,25.639-25.639v-9.884h-81.938v9.884H182.04z"/>
			<path style="fill:#5A9794;" d="M274.111,20.441c2.079,0,5.745,0.426,6.139-0.618C273.56,7.991,260.873,0,246.311,0h-46.604
				c-14.478,0-27.102,7.9-33.822,19.619c1.054,1.081,2.712,0.822,4.09,0.822H274.111z"/>
			<path style="fill:#62A5A2;" d="M280.249,19.823c-2.014-0.243-4.06-0.382-6.139-0.382H169.975c-1.378,0-2.739,0.07-4.09,0.178
				c-26.144,2.084-46.713,23.944-46.713,50.625V254.39c0,28.058,22.745,50.802,50.803,50.802h12.065h81.938h10.133
				c28.059,0,50.803-22.744,50.803-50.802V70.244C324.914,44.264,305.411,22.855,280.249,19.823z M286.251,185.422
				c0,17.863-14.479,32.343-32.343,32.343h-44.096h-8.967h-13.232c-17.863,0-32.343-14.48-32.343-32.343V84.854
				c0-17.863,14.479-32.343,32.343-32.343h13.232h8.967h44.096c17.863,0,32.343,14.48,32.343,32.343V185.422z"/>
			<path style="fill:#F7F1E6;" d="M187.808,197.516c-3.186,0-5.769-2.583-5.769-5.769s2.583-5.769,5.769-5.769h13.037v-9.503h-4.748
				c-1.679,0-3.04-1.361-3.04-3.04c0-1.679,1.361-3.04,3.04-3.04h4.748v-11.761h-4.748c-1.679,0-3.04-1.361-3.04-3.04
				c0-1.679,1.361-3.04,3.04-3.04h4.748v-9.78h-13.037c-3.186,0-5.769-2.583-5.769-5.769c0-3.187,2.583-5.769,5.769-5.769h13.037
				v-11.97h-4.748c-1.679,0-3.04-1.361-3.04-3.039c0-1.679,1.361-3.04,3.04-3.04h4.748v-11.761h-4.748
				c-1.679,0-3.04-1.361-3.04-3.04s1.361-3.04,3.04-3.04h4.748v-9.308h-13.037c-3.186,0-5.769-2.583-5.769-5.769
				s2.583-5.769,5.769-5.769h13.037V52.508h-13.232c-17.863,0-32.343,14.48-32.343,32.343v100.568
				c0,17.863,14.479,32.343,32.343,32.343h13.232v-20.25h-13.037V197.516z"/>
			<path style="fill:#F7F1E6;" d="M253.909,52.511h-44.096v21.992h13.037c3.186,0,5.769,2.583,5.769,5.769
				c0,3.186-2.583,5.769-5.769,5.769h-13.037v9.308h4.748c1.677,0,3.04,1.361,3.04,3.04s-1.362,3.04-3.04,3.04h-4.748v11.761h4.748
				c1.677,0,3.04,1.361,3.04,3.04c0,1.678-1.362,3.039-3.04,3.039h-4.748v11.97h13.037c3.186,0,5.769,2.583,5.769,5.769
				s-2.583,5.769-5.769,5.769h-13.037v9.78h4.748c1.677,0,3.04,1.361,3.04,3.04c0,1.679-1.362,3.04-3.04,3.04h-4.748v11.761h4.748
				c1.677,0,3.04,1.361,3.04,3.04c0,1.679-1.362,3.04-3.04,3.04h-4.748v9.503h13.037c3.186,0,5.769,2.583,5.769,5.769
				s-2.583,5.769-5.769,5.769h-13.037v20.25h44.096c17.863,0,32.343-14.48,32.343-32.343V84.854
				C286.251,66.992,271.772,52.511,253.909,52.511z"/>
			<rect x="200.845" y="52.511" style="fill:#5A9794;" width="8.967" height="165.254"/>
			<path style="fill:#62A5A2;" d="M196.097,95.349c-1.679,0-3.04,1.361-3.04,3.04s1.361,3.04,3.04,3.04h4.748h8.967h4.748
				c1.677,0,3.04-1.361,3.04-3.04s-1.362-3.04-3.04-3.04h-4.748h-8.967H196.097z"/>
			<path style="fill:#62A5A2;" d="M196.097,113.189c-1.679,0-3.04,1.361-3.04,3.04c0,1.678,1.361,3.039,3.04,3.039h4.748h8.967
				h4.748c1.677,0,3.04-1.361,3.04-3.039c0-1.679-1.362-3.04-3.04-3.04h-4.748h-8.967H196.097z"/>
			<path style="fill:#62A5A2;" d="M196.097,152.556c-1.679,0-3.04,1.361-3.04,3.04c0,1.679,1.361,3.04,3.04,3.04h4.748h8.967h4.748
				c1.677,0,3.04-1.361,3.04-3.04c0-1.679-1.362-3.04-3.04-3.04h-4.748h-8.967H196.097z"/>
			<path style="fill:#62A5A2;" d="M196.097,170.396c-1.679,0-3.04,1.361-3.04,3.04c0,1.679,1.361,3.04,3.04,3.04h4.748h8.967h4.748
				c1.677,0,3.04-1.361,3.04-3.04c0-1.679-1.362-3.04-3.04-3.04h-4.748h-8.967H196.097z"/>
			<path style="fill:#62A5A2;" d="M187.808,74.503c-3.186,0-5.769,2.583-5.769,5.769s2.583,5.769,5.769,5.769h13.037h8.967h13.037
				c3.186,0,5.769-2.583,5.769-5.769s-2.583-5.769-5.769-5.769h-13.037h-8.967C200.845,74.503,187.808,74.503,187.808,74.503z"/>
			<path style="fill:#62A5A2;" d="M187.808,131.238c-3.186,0-5.769,2.583-5.769,5.769s2.583,5.769,5.769,5.769h13.037h8.967h13.037
				c3.186,0,5.769-2.583,5.769-5.769c0-3.187-2.583-5.769-5.769-5.769h-13.037h-8.967H187.808z"/>
			<path style="fill:#62A5A2;" d="M187.808,185.978c-3.186,0-5.769,2.583-5.769,5.769s2.583,5.769,5.769,5.769h13.037h8.967h13.037
				c3.186,0,5.769-2.583,5.769-5.769s-2.583-5.769-5.769-5.769h-13.037h-8.967H187.808z"/>
		</g>
	</g>
</g>
<g>
</g>
<g>
</g>
<g>
</g>
<g>
</g>
<g>
</g>
<g>
</g>
<g>
</g>
<g>
</g>
<g>
</g>
<g>
</g>
<g>
</g>
<g>
</g>
<g>
</g>
<g>
</g>
<g>
</g>
</svg>
